<?xml version="1.0" encoding="UTF-8"?>
<svg width="33px" height="30px" viewBox="0 0 33 30" version="1.1" xmlns="http://www.w3.org/2000/svg" xmlns:xlink="http://www.w3.org/1999/xlink">
    <!-- Generator: Sketch 47.1 (45422) - http://www.bohemiancoding.com/sketch -->
    <title>chance_simplified_logo</title>
    <desc>Created with Sketch.</desc>
    <defs>
        <linearGradient x1="-12.7695536%" y1="0%" x2="66.5009568%" y2="78.0586931%" id="linearGradient-1">
            <stop stop-color="#FF7F00" offset="0%"></stop>
            <stop stop-color="#E64040" offset="100%"></stop>
        </linearGradient>
    </defs>
    <g id="Page-1" stroke="none" stroke-width="1" fill="none" fill-rule="evenodd">
        <g id="dashboard" transform="translate(-16.000000, -9.000000)" fill="url(#linearGradient-1)">
            <g id="Header">
                <path d="M16,25.2661072 C16,30.6995757 18.7288959,35.7622294 23.2112978,38.7675347 C23.7062825,39.0992029 24.3798218,38.9427963 24.6782526,38.4276062 L29.109896,30.7791257 C29.3608083,30.3459998 29.2672112,29.7905857 28.8782432,29.4748994 C27.6227819,28.4567301 26.8317062,26.8906888 26.870945,25.1420234 C26.935923,22.2401512 29.3177896,19.884894 32.22686,19.8444905 C35.2639064,19.8022912 37.7390101,22.2458975 37.7390101,25.2661072 C37.7390101,26.9772421 36.9443346,28.5032391 35.7030929,29.4969866 C35.3114249,29.8105181 35.212068,30.3652139 35.4604603,30.8006743 L39.8393654,38.4796819 C40.1343763,38.9968472 40.8070156,39.1577431 41.3045203,38.8291276 C45.8398405,35.83316 48.6086952,30.7390813 48.6086952,25.2661072 C48.6086952,16.3428501 41.248542,9 32.3042576,9 C23.3599732,9 16,16.3428501 16,25.2661072 Z" id="chance_simplified_logo"></path>
            </g>
        </g>
    </g>
</svg>