<?xml version="1.0" encoding="UTF-8"?>
<svg width="176px" height="134px" viewBox="0 0 176 134" version="1.1" xmlns="http://www.w3.org/2000/svg" xmlns:xlink="http://www.w3.org/1999/xlink">
    <!-- Generator: Sketch 47.1 (45422) - http://www.bohemiancoding.com/sketch -->
    <title>chance_logo</title>
    <desc>Created with Sketch.</desc>
    <defs>
        <linearGradient x1="-12.7695536%" y1="0%" x2="66.5009568%" y2="78.0586931%" id="linearGradient-1">
            <stop stop-color="#FF7F00" offset="0%"></stop>
            <stop stop-color="#E64040" offset="100%"></stop>
        </linearGradient>
    </defs>
    <g id="Page-1" stroke="none" stroke-width="1" fill="none" fill-rule="evenodd">
        <g id="login" transform="translate(-632.000000, -86.000000)">
            <g id="logo-group" transform="translate(632.000000, 86.000000)">
                <g id="chance_logo">
                    <path d="M38.4567162,107.004822 C40.2800963,104.34675 43.0745517,103.122169 46.6627629,103.122169 C52.4273203,103.122169 56.8979471,107.213731 56.8979471,113.992238 L56.8979471,131.504513 C56.8979471,132.453945 56.140157,133.223342 55.2050475,133.223342 L49.3848685,133.223342 C48.4501772,133.223342 47.6919689,132.453945 47.6919689,131.504513 L47.6919689,117.307184 C47.6919689,113.842774 45.9861048,111.901873 43.1331006,111.901873 C40.5740954,111.901873 38.4567162,113.664013 38.4567162,117.456223 L38.4567162,131.504513 C38.4567162,132.453945 37.6989262,133.223342 36.7638166,133.223342 L30.9436377,133.223342 C30.0089463,133.223342 29.250738,132.453945 29.250738,131.504513 L29.250738,91.4661438 C29.250738,90.7625617 29.8128075,90.1923077 30.5053573,90.1923077 L36.7638166,90.1923077 C37.6989262,90.1923077 38.4567162,90.9617047 38.4567162,91.9111373 L38.4567162,107.004822 Z M117.011943,131.639369 C117.011943,132.333185 116.458238,132.895372 115.775307,132.895372 L109.043438,132.895372 C108.360507,132.895372 107.806383,132.333185 107.806383,131.639369 L107.806383,116.978789 C107.806383,113.514804 106.100519,111.573902 103.247515,111.573902 C100.688928,111.573902 98.5711308,113.336042 98.5711308,117.128252 L98.5711308,131.639369 C98.5711308,132.333185 98.0178437,132.895372 97.3344944,132.895372 L90.6026254,132.895372 C89.9192761,132.895372 89.3655708,132.333185 89.3655708,131.639369 L89.3655708,104.85654 C89.3655708,104.162724 89.9192761,103.600537 90.6026254,103.600537 L96.9518355,103.600537 C97.6351848,103.600537 98.1884719,104.162724 98.1884719,104.85654 L98.1884719,107.273431 C100.01227,104.197966 102.923823,102.794199 106.776759,102.794199 C112.541735,102.794199 117.011943,106.885336 117.011943,113.664267 L117.011943,131.639369 Z M140.527733,114.00332 C140.037595,114.351077 139.363446,114.300549 138.948586,113.862774 C137.664692,112.50996 136.190514,111.842045 134.292693,111.842045 C131.086723,111.842045 128.351653,114.350653 128.351653,118.56153 C128.351653,122.801706 131.028174,125.280167 134.234144,125.280167 C136.085126,125.280167 137.681002,124.567243 139.003371,123.215279 C139.422832,122.78642 140.093635,122.746082 140.578336,123.096812 L145.805498,126.881379 C146.39726,127.309813 146.495957,128.158612 146.027984,128.722921 C143.275768,132.041689 139.345045,134 134.498451,134 C125.292891,134 118.939917,127.519571 118.939917,118.56153 C118.939917,109.602641 125.292891,103.122212 134.498451,103.122212 C139.345045,103.122212 143.251093,105.10515 145.99871,108.449819 C146.465846,109.018375 146.360458,109.870146 145.762423,110.293909 L140.527733,114.00332 Z M21.5878161,114.00332 C21.0976781,114.351077 20.4235294,114.300549 20.0086686,113.862774 C18.7243566,112.50996 17.2505972,111.842045 15.3527764,111.842045 C12.1468058,111.842045 9.41173578,114.350653 9.41173578,118.56153 C9.41173578,122.801706 12.0878387,125.280167 15.2938093,125.280167 C17.1447909,125.280167 18.7406667,124.567243 20.0634536,123.215279 C20.4824965,122.78642 21.1537178,122.746082 21.6380008,123.096812 L26.8655813,126.881379 C27.4569252,127.309813 27.5556219,128.158612 27.0876489,128.722921 C24.3354323,132.041689 20.4051283,134 15.5585339,134 C6.35255572,134 0,127.519571 0,118.56153 C0,109.602641 6.35255572,103.122212 15.5585339,103.122212 C20.4047101,103.122212 24.3107582,105.10515 27.0583744,108.449819 C27.5259292,109.018375 27.420123,109.870146 26.8220878,110.293909 L21.5878161,114.00332 Z M175.96182,120.065379 C175.9246,120.771084 175.350403,121.323504 174.654507,121.328175 L156.283953,121.44834 C157.068508,124.638026 159.313441,126.116525 162.4893,126.095719 C164.329827,126.08383 166.295815,125.412943 167.961531,124.160338 C168.447487,123.795171 169.114108,123.810033 169.559916,124.225728 L173.752018,128.136405 C174.307814,128.654432 174.276867,129.547815 173.696814,130.037818 C170.777734,132.504389 166.799336,133.921744 162.069003,133.952316 C153.010233,134.011762 146.824542,127.930043 146.766829,118.792817 C146.707862,109.565572 152.696578,103.135672 161.460931,103.078349 C170.019525,103.0223 175.912054,109.255181 175.999459,118.422555 C176.002805,118.921899 175.990677,119.519328 175.96182,120.065379 Z M166.77508,115.46683 C166.021472,112.54465 164.217329,111.003733 161.541226,111.021567 C158.688222,111.04025 156.96312,112.633819 156.275589,115.535193 L166.77508,115.46683 Z M61.1955619,108.099259 C60.7129516,107.573165 60.7547723,106.734981 61.3026227,106.279372 C62.7972925,105.038231 64.4826644,104.075211 66.3574839,103.39201 C68.650928,102.555949 70.9937204,102.138131 73.3862794,102.138131 C75.857043,102.138131 77.9447295,102.446824 79.6510118,103.06336 C81.3564576,103.681171 82.7386299,104.636548 83.7979468,105.929916 C84.8564272,107.224134 85.6301091,108.856343 86.1210835,110.826967 C86.6112214,112.798016 86.8562904,115.137629 86.8562904,117.844531 L86.8562904,131.578607 C86.8562904,132.272423 86.3025851,132.83461 85.6192358,132.83461 L79.2700257,132.83461 C78.5866764,132.83461 78.0329711,132.272423 78.0329711,131.578607 L78.0329711,129.669127 L77.856488,129.669127 C77.1116623,130.903899 75.9837596,131.8597 74.4748707,132.535683 C72.9647273,133.212514 71.3278673,133.551355 69.562618,133.551355 C68.3866215,133.551355 67.1708954,133.391701 65.9162761,133.073242 C64.6608204,132.755207 63.5136801,132.237181 62.4752736,131.52086 C61.4356124,130.804115 60.5828894,129.848313 59.9166866,128.65388 C59.2492291,127.459446 58.916755,125.987316 58.916755,124.234942 C58.916755,122.084706 59.4947163,120.352714 60.6514753,119.03854 C61.8078161,117.725215 63.298722,116.709967 65.1221021,115.993222 C66.9454821,115.276477 68.9746197,114.798788 71.2103513,114.559307 C73.4448283,114.320675 75.6215928,114.201359 77.738972,114.201359 L77.738972,113.723671 C77.738972,112.251116 77.2291783,111.165808 76.2100092,110.469019 C75.1895855,109.772655 73.9349662,109.423624 72.4453149,109.423624 C71.071925,109.423624 69.7487198,109.722127 68.474863,110.319556 C67.5698643,110.743743 66.758962,111.228226 66.041738,111.772578 C65.5444906,112.150483 64.8419038,112.068533 64.4182606,111.607404 L61.1955619,108.099259 Z M78.0329711,119.875025 L76.7980075,119.875025 C75.739527,119.875025 74.6701731,119.92513 73.592037,120.024489 C72.5130644,120.124273 71.5532806,120.313225 70.7101764,120.591771 C69.8666541,120.870741 69.1707585,121.278793 68.6216535,121.815927 C68.0721302,122.353486 67.798205,123.06089 67.798205,123.93559 C67.798205,124.493955 67.9249216,124.971644 68.1804457,125.369505 C68.4355516,125.767791 68.7588252,126.08625 69.1511028,126.324882 C69.5429623,126.563939 69.9937888,126.733784 70.5044189,126.832718 C71.0133761,126.932078 71.5043504,126.981757 71.9748327,126.981757 C73.9349662,126.981757 75.4346545,126.435282 76.4743157,125.339782 C77.5127223,124.245133 78.0329711,122.762387 78.0329711,120.890697 L78.0329711,119.875025 Z" id="Lettering" fill="#E64040"></path>
                    <path d="M50.2857143,38.563187 C50.2857143,51.444687 56.5980405,63.4470708 66.9664765,70.5719562 C68.1114469,71.358265 69.6694395,70.987461 70.3597526,69.7660643 L80.6107771,51.6332819 C81.191173,50.6064401 80.9746695,49.2896816 80.0749309,48.5412621 C77.1708695,46.1274177 75.3409985,42.4146951 75.4317635,38.269013 C75.5820669,31.3893435 81.0916647,25.8055722 87.8207601,25.7097847 C94.8458824,25.60974 100.571151,31.4029666 100.571151,38.563187 C100.571151,42.6198931 98.732953,46.2376797 95.8617835,48.5936259 C94.9557996,49.3369368 94.7259728,50.6519924 95.3005398,51.6843686 L105.429573,69.8895237 C106.111975,71.1156034 107.667886,71.4970504 108.818685,70.7179789 C119.309529,63.615231 125.714286,51.5383459 125.714286,38.563187 C125.714286,17.4082033 108.6892,0 87.9997918,0 C67.310384,0 50.2857143,17.4082033 50.2857143,38.563187 Z" id="Símbolo" fill="url(#linearGradient-1)"></path>
                </g>
            </g>
        </g>
    </g>
</svg>